<svg width="94" height="122" viewBox="0 0 94 122" fill="none" xmlns="http://www.w3.org/2000/svg">
<path d="M49.8591 49.6482C71.6781 61.185 81.2761 85.9779 81.2761 85.9779C81.2761 85.9779 55.4986 92.0659 33.6796 80.5291C11.8607 68.9923 2.26263 44.1994 2.26263 44.1994C2.26263 44.1994 28.0401 38.1114 49.8591 49.6482Z" fill="#3B3B3B"/>
<path d="M42.6101 57.0152C55.6073 78.1446 81.0444 86.1001 81.0444 86.1001C81.0444 86.1001 85.4088 59.7981 72.4115 38.6687C59.4143 17.5392 33.9772 9.58372 33.9772 9.58372C33.9772 9.58372 29.6128 35.8857 42.6101 57.0152Z" fill="#FFCC80"/>
<path d="M61.5244 87.469C62.4399 87.7342 63.2942 88.1771 64.0385 88.7724C64.7829 89.3678 65.4026 90.1039 65.8625 90.9388C66.3223 91.7736 66.6132 92.6909 66.7185 93.6382C66.8239 94.5855 66.7416 95.5442 66.4764 96.4597C66.2112 97.3752 65.7683 98.2295 65.173 98.9738C64.5776 99.7181 63.8415 100.338 63.0066 100.798C62.1718 101.258 61.2545 101.548 60.3072 101.654C59.3599 101.759 58.4012 101.677 57.4857 101.412L10.4292 87.7808L0.248693 77.2756L14.4679 73.8382L61.5244 87.469Z" fill="white" stroke="black" stroke-width="0.2" stroke-linecap="round" stroke-linejoin="round"/>
</svg>
