<svg width="917" height="751" viewBox="0 0 917 751" fill="none" xmlns="http://www.w3.org/2000/svg">
<g clip-path="url(#clip0)">
<path d="M879.683 327.204C879.683 470.401 787.645 592.107 659.458 636.467C607.861 654.221 552.659 658.893 498.808 650.062C493.698 649.229 488.623 648.271 483.585 647.188C476.759 645.739 470.014 644.073 463.348 642.19C325.726 603.48 224.856 477.114 224.856 327.204C224.856 146.493 371.443 0 552.27 0C733.096 0 879.683 146.493 879.683 327.204Z" fill="white"/>
<path d="M347.199 428.194C346.623 428.502 346.192 429.027 346.002 429.652C345.812 430.277 345.878 430.952 346.185 431.528L469.284 661.947C469.593 662.523 470.117 662.953 470.743 663.143C471.368 663.333 472.044 663.267 472.621 662.96L646.633 570.115C647.209 569.807 647.64 569.283 647.83 568.657C648.02 568.032 647.954 567.357 647.647 566.781L524.548 336.362C524.239 335.786 523.715 335.356 523.089 335.166C522.464 334.976 521.788 335.042 521.211 335.349L347.199 428.194Z" fill="#FFCC80"/>
<path d="M363.374 434.927L476.022 645.78L630.458 563.382L517.81 352.527L363.374 434.927ZM353.588 440.148L353.61 440.137L353.586 440.149L353.588 440.148Z" fill="#FFCC80"/>
<path d="M402.313 458.108C399.914 459.389 399.403 463.126 401.173 466.438C402.942 469.75 406.333 471.405 408.733 470.124L521.841 409.775C524.24 408.495 524.751 404.758 522.981 401.446C521.212 398.134 517.82 396.479 515.421 397.759L402.313 458.108Z" fill="white"/>
<path d="M416.249 484.194C413.849 485.474 413.339 489.211 415.108 492.523C416.878 495.835 420.269 497.49 422.668 496.21L535.776 435.86C538.175 434.58 538.686 430.843 536.917 427.531C535.147 424.219 531.756 422.564 529.357 423.844L416.249 484.194Z" fill="white"/>
<path d="M430.184 510.279C427.785 511.559 427.274 515.296 429.044 518.608C430.813 521.92 434.205 523.575 436.604 522.295L549.712 461.945C552.111 460.665 552.622 456.928 550.852 453.616C549.083 450.304 545.692 448.649 543.292 449.929L430.184 510.279Z" fill="white"/>
<path d="M444.12 536.364C441.721 537.644 441.21 541.381 442.98 544.693C444.749 548.005 448.141 549.66 450.54 548.38L563.648 488.03C566.047 486.75 566.558 483.013 564.788 479.701C563.019 476.389 559.628 474.734 557.228 476.014L444.12 536.364Z" fill="white"/>
<path d="M458.056 562.449C455.657 563.729 455.146 567.466 456.915 570.778C458.685 574.09 462.076 575.745 464.475 574.465L577.583 514.116C579.983 512.835 580.493 509.098 578.724 505.786C576.954 502.474 573.563 500.819 571.164 502.1L458.056 562.449Z" fill="white"/>
<path d="M480.02 328.645L582.509 334.899L611.211 249.357L521.318 230.376L480.02 328.645Z" fill="#2F2E41"/>
<path d="M553.935 307.014C576.573 307.014 594.924 288.674 594.924 266.05C594.924 243.427 576.573 225.087 553.935 225.087C531.297 225.087 512.945 243.427 512.945 266.05C512.945 288.674 531.297 307.014 553.935 307.014Z" fill="#FFB8B8"/>
<path d="M620.531 348.334L554.082 359.2L536.563 289.775L583.078 285.549L620.531 348.334Z" fill="#FFB8B8"/>
<path d="M659.193 633.279L659.458 636.466C607.861 654.221 552.659 658.893 498.808 650.062L498.458 655.724C498.262 658.759 497.354 661.704 495.808 664.323C494.261 666.941 492.12 669.16 489.557 670.798C486.994 672.437 484.082 673.45 481.054 673.755C478.027 674.06 474.971 673.649 472.132 672.555L483.585 647.188L498.071 615.083L507.567 594.039L504.148 521.233L503.786 513.698L503.339 504.088L509.525 504.051L553.502 503.786L595.413 503.52L601.805 503.484C641.88 552.746 674.947 592.783 659.193 633.279Z" fill="#2F2E41"/>
<path d="M601.2 502.88L503.339 513.747L499.714 446.133C488.23 416.86 495.811 390.732 519.646 367.286L524.492 348.117C525.764 343.086 528.392 338.5 532.09 334.857C535.788 331.214 540.415 328.655 545.468 327.456V327.456C561.487 318.275 579.632 313.899 599.992 314.527C608.123 317.7 615.017 323.402 619.657 330.791C624.296 338.181 626.434 346.865 625.756 355.562C621.545 408.699 613.986 458.44 601.2 502.88Z" fill="#3F3D56"/>
<path d="M573.413 389.385L572.627 395.313L560.123 489.599L553.502 503.786L551.34 508.422L500.923 616.375L498.808 650.062L498.458 655.724C498.289 658.543 497.506 661.29 496.162 663.774C494.819 666.258 492.947 668.418 490.68 670.102C488.413 671.786 485.804 672.955 483.037 673.525C480.27 674.095 477.411 674.053 474.662 673.402C471.913 672.751 469.34 671.507 467.122 669.757C464.905 668.007 463.098 665.793 461.828 663.271C460.558 660.749 459.855 657.98 459.769 655.158C459.683 652.336 460.216 649.529 461.331 646.935L463.349 642.19L474.343 616.375L504.148 521.233L506.601 513.385L509.525 504.051L517.837 477.525L531.079 395.953L532.335 388.178L573.413 389.385Z" fill="#FFB8B8"/>
<path d="M580.662 397.837C561.674 391.018 543.46 390.293 526.294 397.837L531.897 349.305C531.691 343.245 533.874 337.346 537.975 332.877C542.076 328.408 547.768 325.725 553.828 325.407C556.872 325.246 559.918 325.688 562.79 326.707C565.663 327.726 568.307 329.301 570.569 331.343C572.831 333.385 574.668 335.853 575.974 338.606C577.28 341.358 578.029 344.342 578.179 347.384L580.662 397.837Z" fill="#3F3D56"/>
<path d="M522.926 217.652C522.926 217.652 501.732 225.382 501.187 253.483C501.157 258.212 501.789 262.922 503.064 267.476C504.438 272.641 505.541 283.847 496.299 298.785C490.26 308.481 484.801 318.526 479.949 328.866V328.866L503.814 331.168L507.76 291.632C509.673 272.464 514.4 253.682 521.788 235.89L521.942 235.518C521.942 235.518 532.891 254.535 553.699 253.949L546.059 246.732C546.059 246.732 572.121 256.54 586.293 258.51C587.91 258.735 589.436 259.396 590.705 260.424C591.974 261.451 592.938 262.805 593.494 264.339C594.05 265.873 594.177 267.53 593.86 269.131C593.544 270.732 592.796 272.217 591.698 273.425C591.615 273.516 591.53 273.607 591.444 273.699C582.777 282.862 565.527 304.159 576.392 320.205C587.257 336.251 578.464 340.959 578.464 340.959L594.563 331.586L601.869 326.921L602.036 332.862L640.555 327.318C640.555 327.318 650.917 325.54 627.911 300.916C627.911 300.916 621.747 291.276 624.084 282.746C626.02 276.259 626.383 269.405 625.145 262.75C619.365 235.045 598.209 180.235 522.926 217.652Z" fill="#2F2E41"/>
<path d="M0.897335 389.425C0.587888 389.507 0.323932 389.709 0.163375 389.986C0.00281832 390.263 -0.041212 390.593 0.0409468 390.902L33.012 514.572C33.0948 514.881 33.297 515.145 33.5742 515.305C33.8514 515.466 34.1809 515.51 34.4905 515.428L127.886 490.56C128.195 490.477 128.459 490.275 128.62 489.998C128.78 489.721 128.824 489.392 128.742 489.082L95.7712 365.413C95.6884 365.103 95.4862 364.839 95.209 364.679C94.9318 364.519 94.6023 364.475 94.2927 364.557L0.897335 389.425Z" fill="#FFCC80"/>
<path d="M23.8468 409.849C22.5591 410.192 21.8977 411.917 22.3716 413.695C22.8456 415.473 24.2785 416.641 25.5662 416.298L86.2732 400.134C87.5609 399.791 88.2223 398.065 87.7484 396.288C87.2744 394.51 85.8415 393.342 84.5538 393.685L23.8468 409.849Z" fill="white"/>
<path d="M27.5792 423.849C26.2915 424.192 25.6301 425.918 26.104 427.695C26.578 429.473 28.0109 430.641 29.2986 430.298L90.0056 414.134C91.2933 413.791 91.9547 412.066 91.4808 410.288C91.0069 408.51 89.5739 407.342 88.2862 407.685L27.5792 423.849Z" fill="white"/>
<path d="M31.3121 437.85C30.0244 438.192 29.363 439.918 29.837 441.696C30.3109 443.473 31.7438 444.642 33.0315 444.299L93.7385 428.135C95.0262 427.792 95.6876 426.066 95.2137 424.288C94.7397 422.511 93.3068 421.342 92.0191 421.685L31.3121 437.85Z" fill="white"/>
<path d="M35.0446 451.85C33.7568 452.193 33.0955 453.919 33.5694 455.696C34.0433 457.474 35.4762 458.642 36.764 458.299L97.4709 442.135C98.7586 441.792 99.42 440.066 98.9461 438.289C98.4722 436.511 97.0392 435.343 95.7515 435.686L35.0446 451.85Z" fill="white"/>
<path d="M38.7775 465.85C37.4897 466.193 36.8284 467.919 37.3023 469.696C37.7762 471.474 39.2092 472.642 40.4969 472.299L101.204 456.135C102.492 455.792 103.153 454.067 102.679 452.289C102.205 450.511 100.772 449.343 99.4844 449.686L38.7775 465.85Z" fill="white"/>
<path d="M42.5099 479.85C41.2222 480.193 40.5608 481.919 41.0347 483.697C41.5086 485.474 42.9416 486.643 44.2293 486.3L104.936 470.136C106.224 469.793 106.885 468.067 106.411 466.289C105.938 464.512 104.505 463.343 103.217 463.686L42.5099 479.85Z" fill="white"/>
<path d="M4.32329 300.18C4.04087 300.331 3.82995 300.588 3.73681 300.894C3.64368 301.2 3.67595 301.531 3.82654 301.813L64.1425 414.714C64.2936 414.996 64.5507 415.207 64.8572 415.3C65.1636 415.393 65.4946 415.361 65.7773 415.21L151.04 369.718C151.322 369.567 151.533 369.31 151.626 369.004C151.719 368.698 151.687 368.367 151.537 368.084L91.2206 255.184C91.0694 254.901 90.8124 254.691 90.5059 254.598C90.1994 254.505 89.8685 254.537 89.5858 254.687L4.32329 300.18Z" fill="#FFAB91"/>
<path d="M12.2487 303.479L67.444 406.792L143.114 366.419L87.9192 263.104L12.2487 303.479ZM7.45382 306.037L7.46444 306.031L7.45264 306.037L7.45382 306.037Z" fill="#FFAB91"/>
<path d="M31.3277 314.837C30.1521 315.464 29.9019 317.295 30.7688 318.918C31.6358 320.541 33.2975 321.352 34.4731 320.725L89.8937 291.155C91.0692 290.527 91.3196 288.696 90.4526 287.073C89.5856 285.451 87.9239 284.64 86.7483 285.267L31.3277 314.837Z" fill="white"/>
<path d="M38.1563 327.618C36.9808 328.245 36.7305 330.076 37.5974 331.699C38.4644 333.322 40.1261 334.133 41.3017 333.506L96.7223 303.936C97.8978 303.309 98.1481 301.477 97.2811 299.855C96.4142 298.232 94.7525 297.421 93.5769 298.048L38.1563 327.618Z" fill="white"/>
<path d="M44.9844 340.399C43.8089 341.027 43.5586 342.858 44.4256 344.481C45.2925 346.103 46.9543 346.914 48.1298 346.287L103.55 316.717C104.726 316.09 104.976 314.259 104.109 312.636C103.242 311.013 101.581 310.202 100.405 310.829L44.9844 340.399Z" fill="white"/>
<path d="M51.8126 353.18C50.637 353.808 50.3867 355.639 51.2537 357.262C52.1207 358.885 53.7824 359.695 54.9579 359.068L110.379 329.498C111.554 328.871 111.804 327.04 110.937 325.417C110.07 323.794 108.409 322.983 107.233 323.611L51.8126 353.18Z" fill="white"/>
<path d="M58.6407 365.962C57.4651 366.589 57.2148 368.42 58.0818 370.043C58.9488 371.666 60.6105 372.477 61.786 371.849L117.207 342.279C118.382 341.652 118.633 339.821 117.766 338.198C116.899 336.575 115.237 335.765 114.061 336.392L58.6407 365.962Z" fill="white"/>
<path d="M65.4688 378.743C64.2932 379.37 64.043 381.201 64.91 382.824C65.7769 384.447 67.4387 385.258 68.6142 384.631L124.035 355.06C125.21 354.433 125.461 352.602 124.594 350.979C123.727 349.356 122.065 348.546 120.889 349.173L65.4688 378.743Z" fill="white"/>
<path d="M832.83 588.696C832.554 588.533 832.225 588.487 831.915 588.566C831.605 588.646 831.339 588.845 831.176 589.121L766.022 699.304C765.859 699.58 765.813 699.909 765.893 700.219C765.972 700.529 766.172 700.795 766.447 700.958L849.658 750.099C849.934 750.261 850.263 750.308 850.573 750.228C850.883 750.149 851.149 749.949 851.313 749.674L916.466 639.491C916.629 639.215 916.675 638.886 916.596 638.576C916.516 638.266 916.316 638 916.041 637.837L832.83 588.696Z" fill="#FFAB91"/>
<path d="M834.13 597.177L774.509 698.005L848.358 741.618L907.979 640.789L834.13 597.177ZM829.451 594.413L829.461 594.419L829.45 594.412L829.451 594.413Z" fill="#FFAB91"/>
<path d="M834.339 619.37C833.192 618.692 831.496 619.43 830.56 621.014C829.623 622.598 829.794 624.438 830.941 625.116L885.028 657.057C886.175 657.735 887.871 656.997 888.807 655.413C889.744 653.829 889.573 651.989 888.426 651.311L834.339 619.37Z" fill="white"/>
<path d="M826.963 631.843C825.816 631.166 824.121 631.904 823.184 633.488C822.247 635.071 822.418 636.912 823.565 637.589L877.652 669.531C878.799 670.208 880.495 669.47 881.431 667.886C882.368 666.303 882.197 664.463 881.05 663.785L826.963 631.843Z" fill="white"/>
<path d="M819.587 644.317C818.44 643.639 816.745 644.377 815.808 645.961C814.871 647.545 815.042 649.385 816.189 650.063L870.276 682.004C871.423 682.682 873.119 681.944 874.055 680.36C874.992 678.776 874.821 676.936 873.674 676.258L819.587 644.317Z" fill="white"/>
<path d="M812.212 656.79C811.064 656.113 809.369 656.851 808.433 658.435C807.496 660.018 807.667 661.859 808.814 662.536L862.901 694.478C864.048 695.155 865.743 694.417 866.68 692.833C867.616 691.25 867.446 689.409 866.298 688.732L812.212 656.79Z" fill="white"/>
<path d="M804.836 669.264C803.688 668.586 801.993 669.324 801.057 670.908C800.12 672.492 800.291 674.332 801.438 675.01L855.525 706.952C856.672 707.629 858.367 706.891 859.304 705.307C860.24 703.723 860.07 701.883 858.922 701.206L804.836 669.264Z" fill="white"/>
<path d="M797.46 681.737C796.312 681.06 794.617 681.798 793.681 683.382C792.744 684.966 792.915 686.806 794.062 687.483L848.149 719.425C849.296 720.103 850.991 719.364 851.928 717.781C852.864 716.197 852.694 714.357 851.546 713.679L797.46 681.737Z" fill="white"/>
</g>
<defs>
<clipPath id="clip0">
<rect width="917" height="751" fill="white"/>
</clipPath>
</defs>
</svg>
