<svg width="556" height="410" viewBox="0 0 556 410" fill="none" xmlns="http://www.w3.org/2000/svg">
<g clip-path="url(#clip0)">
<path opacity="0.1" d="M5.98438 196.569C14.764 230.489 33.334 259.812 62.6802 274.025C123.687 303.565 261.275 288.33 363.961 270.842C417.078 261.797 463.766 236.836 497.682 201.708L5.98438 196.569Z" fill="#CFCED6"/>
<path opacity="0.1" d="M544.466 36.9016H488.124C485.45 36.9016 483.256 34.9209 483.256 32.5005C483.256 30.0801 485.45 28.0943 488.124 28.0943H497.869C495.19 28.0943 493.001 26.1136 493.001 23.6882C493.001 21.2628 495.19 19.2871 497.869 19.2871H490.914C488.235 19.2871 486.041 17.3063 486.041 14.8809C486.041 12.4555 488.235 10.4798 490.914 10.4798H520.321C513.795 7.73607 506.168 5.78564 497.378 4.75989C417.19 -4.55266 388.561 1.60686 378.462 7.93819C365.875 15.9281 351.892 21.4721 337.248 24.2794C287.775 33.5111 195.254 44.6174 111.395 20.7423C69.7161 8.85276 38.7374 28.918 20.1724 62.4593H554.251C553.554 52.7122 551.466 43.7079 547.635 35.8304C546.728 36.5307 545.612 36.9078 544.466 36.9016V36.9016Z" fill="#CFCED6"/>
<path opacity="0.1" d="M1.20813 125.768C-0.955957 145.495 -0.22032 165.433 3.39165 184.948L498.061 201.314C511.678 187.195 523.247 171.238 532.431 153.907L1.20813 125.768ZM196.856 167.985H187.116C189.795 167.985 191.988 169.971 191.988 172.391C191.988 174.811 189.795 176.792 187.116 176.792H130.774C128.1 176.792 125.907 174.811 125.907 172.391C125.907 169.971 128.1 167.985 130.774 167.985H140.519C137.84 167.985 135.652 166.004 135.652 163.584C135.652 161.163 137.84 159.178 140.519 159.178H133.559C130.88 159.178 128.687 157.197 128.687 154.776C128.687 152.356 130.88 150.37 133.559 150.37H189.901C192.58 150.37 194.768 152.351 194.768 154.776C194.768 157.202 192.58 159.178 189.901 159.178H196.856C199.535 159.178 201.723 161.158 201.723 163.584C201.723 166.009 199.535 167.985 196.856 167.985Z" fill="#CFCED6"/>
<path opacity="0.1" d="M554.271 62.7625L14.2132 74.6368C7.64237 89.9119 3.28543 107.183 1.27881 125.08H544.809C548.347 114.609 550.971 103.852 552.654 92.9285C554.276 82.4133 554.923 72.2418 554.271 62.7625ZM110.93 101.695H101.19C103.869 101.695 106.063 103.681 106.063 106.101C106.063 108.522 103.869 110.508 101.19 110.508H44.8482C42.1744 110.508 39.9808 108.522 39.9808 106.101C39.9808 103.681 42.1744 101.695 44.8482 101.695H54.5932C51.9143 101.695 49.7257 99.7145 49.7257 97.2942C49.7257 94.8738 51.9143 92.888 54.5932 92.888H47.6332C44.9543 92.888 42.7607 90.9073 42.7607 88.4869C42.7607 86.0666 44.9543 84.0808 47.6332 84.0808H103.975C106.654 84.0808 108.843 86.0615 108.843 88.4869C108.843 90.9123 106.654 92.888 103.975 92.888H110.93C113.609 92.888 115.798 94.8738 115.798 97.2942C115.798 99.7145 113.609 101.695 110.93 101.695Z" fill="#CFCED6"/>
<path opacity="0.1" d="M275.508 394.674C400.283 394.674 501.432 385.372 501.432 373.897C501.432 362.422 400.283 353.119 275.508 353.119C150.734 353.119 49.5842 362.422 49.5842 373.897C49.5842 385.372 150.734 394.674 275.508 394.674Z" fill="#CFCED6"/>
<g opacity="0.1">
<path opacity="0.1" d="M426.965 143.584C427.069 143.387 427.16 143.182 427.238 142.973C427.809 141.386 427.556 139.643 427.561 137.955C427.561 137.392 427.613 136.831 427.718 136.278C427.251 137.276 427.025 138.37 427.056 139.471C427.051 140.83 427.213 142.255 426.965 143.584Z" fill="black"/>
<path opacity="0.1" d="M489.276 219.899C487.179 221.46 484.07 221.051 481.952 219.51C479.834 217.968 478.546 215.548 477.651 213.087C476.534 210.106 475.705 206.741 473.157 204.826C472.243 204.139 471.136 203.689 470.241 203.002C468.219 201.455 467.208 198.904 466.481 196.458C465.546 193.376 464.808 190.208 463.448 187.297C462.088 184.387 459.955 181.678 457.014 180.349C454.264 179.111 451.09 179.192 448.244 178.187C443.341 176.459 439.717 172.34 434.85 170.4C433.291 169.744 431.814 168.909 430.447 167.914C428.052 166.262 427.415 165.327 427.061 162.411C426.555 158.036 422.108 154.221 422.8 150.097C422.687 150.32 422.588 150.55 422.502 150.785C420.985 155.231 426.04 159.258 426.545 163.922C426.874 166.838 427.556 167.773 429.932 169.425C431.299 170.42 432.776 171.254 434.334 171.911C439.202 173.851 442.826 177.974 447.729 179.698C450.574 180.708 453.748 180.622 456.498 181.86C459.44 183.189 461.552 185.903 462.932 188.808C464.312 191.713 465.05 194.871 465.965 197.969C466.708 200.415 467.684 202.966 469.726 204.512C470.64 205.2 471.747 205.649 472.642 206.337C475.169 208.252 476.018 211.617 477.135 214.598C478.055 217.049 479.344 219.474 481.462 221.01C483.58 222.546 486.688 222.961 488.786 221.399C490.125 220.389 490.808 218.848 491.257 217.195C490.858 218.261 490.172 219.196 489.276 219.899V219.899Z" fill="black"/>
<path opacity="0.1" d="M499.663 204.745C499.47 205.107 499.385 205.518 499.42 205.927C500.563 204.8 503.141 205.462 504.04 204.012C504.249 203.654 504.331 203.235 504.273 202.825C503.1 203.936 500.522 203.274 499.663 204.745Z" fill="black"/>
<path opacity="0.1" d="M492.238 213.385C492.142 213.891 492.046 214.431 491.925 214.957C495.018 215.922 498.592 213.441 499.097 210.308C497.869 212.718 494.836 214.33 492.238 213.385Z" fill="black"/>
</g>
<path d="M418.19 34.9814C418.19 34.9814 375.632 32.4195 380.651 62.2318C380.651 62.2318 379.64 67.497 384.432 69.8921C384.432 69.8921 384.507 67.684 388.794 68.4318C390.321 68.6873 391.873 68.7619 393.418 68.6541C395.506 68.5122 397.49 67.6925 399.069 66.3197V66.3197C399.069 66.3197 411.033 61.3829 415.688 41.8332C415.688 41.8332 419.13 37.5685 418.994 36.477L411.812 39.5391C411.812 39.5391 414.263 44.7184 412.317 49.0235C412.317 49.0235 412.085 39.7311 410.705 39.9282C410.427 39.9737 406.975 41.722 406.975 41.722C406.975 41.722 411.195 50.7465 407.985 57.3002C407.985 57.3002 409.193 46.1837 405.63 42.3738L400.576 45.3247C400.576 45.3247 405.509 54.6423 402.163 62.247C402.163 62.247 403.022 50.5848 399.514 46.0422L394.93 49.6147C394.93 49.6147 399.565 58.8009 396.739 65.107C396.739 65.107 396.37 51.5297 393.939 50.504C393.939 50.504 389.931 54.041 389.319 55.4912C389.319 55.4912 392.494 62.156 390.527 65.6729C390.527 65.6729 389.319 56.6281 388.329 56.5776C388.329 56.5776 384.336 62.5704 383.916 66.6835C383.916 66.6835 384.093 60.5694 387.358 56.0066C387.358 56.0066 383.497 56.6686 381.247 59.1748C381.247 59.1748 381.869 54.9354 388.324 54.5665C388.324 54.5665 391.624 50.0189 392.509 49.746C392.509 49.746 386.064 49.2054 382.157 50.9385C382.157 50.9385 385.594 46.9417 393.686 48.7557L398.235 45.067C398.235 45.067 389.754 43.9049 386.155 45.1883C386.155 45.1883 390.295 41.6512 399.453 44.2282L404.382 41.2824C404.382 41.2824 397.149 39.7261 392.837 40.2718C392.837 40.2718 397.386 37.8211 405.822 40.479L409.36 38.8974C409.36 38.8974 404.058 37.8565 402.506 37.6948C400.955 37.5331 400.874 37.0986 400.874 37.0986C404.241 36.5513 407.694 36.9519 410.846 38.2557C410.846 38.2557 418.317 35.4513 418.19 34.9814Z" fill="#FFCC80"/>
<path d="M374.54 21.7276C374.54 21.7276 355.333 20.5654 357.577 34.0365C357.577 34.0365 357.128 36.4164 359.286 37.4978C359.286 37.4978 359.316 36.4872 361.257 36.8409C361.947 36.9543 362.647 36.9883 363.345 36.9419C364.289 36.8746 365.186 36.5042 365.902 35.8859V35.8859C365.902 35.8859 371.305 33.6525 373.408 24.82C373.408 24.82 374.965 22.8948 374.924 22.3996L371.679 23.7841C371.679 23.7841 372.791 26.1236 371.917 28.069C371.917 28.069 371.811 23.87 371.189 23.9711C371.063 23.9711 369.501 24.7795 369.501 24.7795C369.501 24.7795 371.411 28.8572 369.971 31.8183C369.971 31.8183 370.517 26.7957 368.909 25.0726L366.625 26.4066C366.625 26.4066 368.854 30.6207 367.343 34.0567C367.343 34.0567 367.727 28.7865 366.145 26.735L364.072 28.3469C364.072 28.3469 366.165 32.4954 364.891 35.3452C364.891 35.3452 364.724 29.211 363.623 28.7461C363.623 28.7461 361.813 30.3428 361.535 30.9997C361.535 30.9997 362.97 34.0314 362.081 35.6029C362.081 35.6029 361.535 31.5151 361.07 31.4999C361.07 31.4999 359.266 34.2032 359.079 36.0476C359.166 34.3312 359.701 32.6675 360.63 31.222C359.59 31.4187 358.631 31.9159 357.871 32.652C357.871 32.652 358.149 30.7369 361.075 30.5702C361.075 30.5702 362.566 28.5187 362.965 28.3924C362.965 28.3924 360.054 28.1498 358.29 28.933C358.29 28.933 359.842 27.1241 363.501 27.9225L365.523 26.26C365.523 26.26 361.692 25.7547 360.064 26.3106C360.064 26.3106 361.934 24.7138 366.074 25.8811L368.298 24.5471C368.298 24.5471 365.033 23.8447 363.082 24.0974C363.082 24.0974 365.139 22.9908 368.95 24.1934L370.542 23.4759C370.542 23.4759 368.146 23.0059 367.449 22.9352C366.751 22.8645 366.706 22.6674 366.706 22.6674C368.223 22.4151 369.781 22.59 371.204 23.1727C371.204 23.1727 374.596 21.9398 374.54 21.7276Z" fill="#FFCC80"/>
<path d="M512.597 394.644C523.822 394.644 532.921 393.106 532.921 391.208C532.921 389.311 523.822 387.772 512.597 387.772C501.373 387.772 492.273 389.311 492.273 391.208C492.273 393.106 501.373 394.644 512.597 394.644Z" fill="#FFCC80"/>
<path d="M520.998 385.594C521.926 384.838 522.602 383.818 522.939 382.669C523.186 381.512 522.691 380.117 521.584 379.693C520.341 379.218 519.011 380.082 518.006 380.951C517 381.82 515.842 382.81 514.523 382.628C515.202 382.014 515.709 381.235 515.996 380.366C516.283 379.497 516.34 378.569 516.161 377.671C516.103 377.3 515.946 376.95 515.706 376.661C515.013 375.923 513.765 376.236 512.936 376.818C510.308 378.667 509.575 382.234 509.56 385.448C509.297 384.291 509.519 383.083 509.514 381.911C509.509 380.739 509.181 379.384 508.18 378.763C507.559 378.431 506.862 378.268 506.158 378.288C504.975 378.242 503.661 378.359 502.852 379.223C501.841 380.299 502.109 382.098 502.984 383.265C503.858 384.432 505.182 385.19 506.401 386.004C507.381 386.586 508.217 387.383 508.847 388.333C508.921 388.467 508.981 388.607 509.029 388.753H516.434C518.091 387.91 519.626 386.848 520.998 385.594V385.594Z" fill="#FFCC80"/>
<path d="M29.9931 343.226C29.9931 343.226 32.768 346.854 28.7093 352.321C24.6506 357.788 21.3045 362.427 22.644 365.843C22.644 365.843 28.7649 355.666 33.7638 355.519C38.7626 355.373 35.4722 349.345 29.9931 343.226Z" fill="#FFCC80"/>
<path opacity="0.1" d="M29.9932 343.226C30.2342 343.576 30.4247 343.959 30.5593 344.362C35.4217 350.072 38.0096 355.403 33.3393 355.535C28.9823 355.661 23.7358 363.442 22.5076 365.408C22.5505 365.56 22.6011 365.71 22.6592 365.858C22.6592 365.858 28.7801 355.681 33.779 355.535C38.7779 355.388 35.4722 349.345 29.9932 343.226Z" fill="black"/>
<path d="M35.1536 347.849C35.1536 349.127 35.0071 350.163 34.8302 350.163C34.6532 350.163 34.5117 349.153 34.5117 347.849C34.5117 346.545 34.6886 347.172 34.8706 347.172C35.0525 347.172 35.1536 346.571 35.1536 347.849Z" fill="#FFD037"/>
<path d="M36.9027 349.375C35.7806 349.986 34.8051 350.355 34.7192 350.198C34.6332 350.042 35.4773 349.425 36.5994 348.814C37.7215 348.203 37.2767 348.647 37.3626 348.814C37.4486 348.981 38.045 348.763 36.9027 349.375Z" fill="#FFD037"/>
<path d="M15.3251 343.226C15.3251 343.226 12.5502 346.854 16.6038 352.321C20.6575 357.788 24.0086 362.427 22.6692 365.843C22.6692 365.843 16.5432 355.666 11.5494 355.519C6.55558 355.373 9.84098 349.345 15.3251 343.226Z" fill="#FFCC80"/>
<path opacity="0.1" d="M15.3251 343.226C15.0819 343.575 14.8912 343.958 14.759 344.362C9.89658 350.072 7.30365 355.403 11.979 355.535C16.3309 355.661 21.5825 363.442 22.8057 365.408C22.7644 365.56 22.7155 365.71 22.6591 365.858C22.6591 365.858 16.5331 355.681 11.5393 355.535C6.54548 355.388 9.84098 349.345 15.3251 343.226Z" fill="black"/>
<path d="M10.1646 347.849C10.1646 349.127 10.3061 350.163 10.483 350.163C10.6599 350.163 10.8014 349.153 10.8014 347.849C10.8014 346.545 10.6245 347.172 10.4476 347.172C10.2707 347.172 10.1646 346.571 10.1646 347.849Z" fill="#FFD037"/>
<path d="M8.39031 349.375C9.5124 349.986 10.493 350.355 10.5789 350.198C10.6648 350.042 9.82072 349.425 8.69863 348.814C7.57655 348.203 8.01629 348.647 7.93541 348.814C7.85454 348.981 7.26822 348.763 8.39031 349.375Z" fill="#FFD037"/>
<path d="M11.0491 365.383C11.0491 365.383 18.8127 365.145 21.158 363.478C23.5032 361.81 33.1017 359.824 33.6829 362.467C34.2642 365.11 45.3486 375.756 36.5842 375.827C27.8197 375.898 16.2198 374.458 13.8846 373.038C11.5495 371.618 11.0491 365.383 11.0491 365.383Z" fill="#A8A8A8"/>
<path opacity="0.2" d="M36.7308 374.923C27.9663 374.993 16.3664 373.553 14.0312 372.133C12.252 371.052 11.5444 367.166 11.3069 365.373H11.0491C11.0491 365.373 11.5545 371.633 13.8745 373.053C16.1945 374.473 27.8096 375.913 36.5741 375.842C39.1013 375.842 39.9757 374.918 39.9302 373.589C39.5764 374.402 38.6161 374.907 36.7308 374.923Z" fill="black"/>
<path d="M277.995 275.712V249.793C277.996 249.076 278.28 248.389 278.786 247.882C279.291 247.374 279.977 247.089 280.692 247.088H302.592C303.307 247.089 303.992 247.374 304.498 247.882C305.004 248.389 305.288 249.076 305.289 249.793V275.712C305.288 276.429 305.004 277.116 304.498 277.623C303.992 278.13 303.307 278.416 302.592 278.417H280.692C279.977 278.416 279.291 278.13 278.786 277.623C278.28 277.116 277.996 276.429 277.995 275.712V275.712Z" fill="#E6E6E6"/>
<path d="M286.082 267.122V241.203C286.083 240.486 286.367 239.799 286.873 239.292C287.378 238.785 288.064 238.499 288.779 238.499H310.679C311.394 238.499 312.08 238.785 312.585 239.292C313.091 239.799 313.375 240.486 313.376 241.203V267.122C313.375 267.839 313.091 268.526 312.585 269.034C312.08 269.541 311.394 269.826 310.679 269.827H288.779C288.064 269.826 287.378 269.541 286.873 269.034C286.367 268.526 286.083 267.839 286.082 267.122V267.122Z" fill="#FFCC80"/>
<path d="M384.21 258.824C383.371 258.35 382.648 257.701 382.093 256.924C381.538 256.147 381.164 255.26 380.997 254.326C380.83 253.392 380.874 252.433 381.127 251.518C381.379 250.602 381.834 249.752 382.459 249.027L375.546 199.591L389.945 200.282L392.206 248.502C393.381 249.61 394.1 251.101 394.227 252.693C394.354 254.284 393.88 255.866 392.894 257.139C391.908 258.411 390.48 259.285 388.879 259.596C387.279 259.907 385.617 259.632 384.21 258.824V258.824Z" fill="#FFB8B8"/>
<path d="M392.088 200.896C391.795 201.236 391.42 201.498 390.998 201.657L378.17 206.49C377.526 206.733 376.812 206.723 376.175 206.461C375.538 206.2 375.027 205.708 374.746 205.086L363.383 179.877C362.292 177.539 362.106 174.887 362.861 172.422C363.419 170.663 364.447 169.086 365.837 167.855C367.228 166.625 368.928 165.788 370.76 165.432C372.169 165.145 373.624 165.166 375.024 165.491C376.702 165.86 378.26 166.636 379.558 167.75C380.855 168.863 381.85 170.278 382.454 171.867L392.558 198.23C392.728 198.675 392.774 199.157 392.691 199.626C392.608 200.095 392.4 200.534 392.088 200.896V200.896Z" fill="#CCCCCC"/>
<path d="M325.505 380.486H316.604L313.376 346.126L325.507 346.288L325.505 380.486Z" fill="#FFB8B8"/>
<path d="M310.47 377.959H327.529V388.57H299.729C299.729 387.177 300.007 385.797 300.547 384.51C301.086 383.222 301.878 382.053 302.875 381.067C303.872 380.082 305.056 379.3 306.36 378.767C307.663 378.234 309.059 377.959 310.47 377.959V377.959Z" fill="#2F2E41"/>
<path d="M366.446 380.486H357.542L353.306 346.126L366.448 346.127L366.446 380.486Z" fill="#FFB8B8"/>
<path d="M351.411 377.959H368.47V388.57H340.67C340.67 387.177 340.948 385.797 341.488 384.51C342.028 383.222 342.819 382.053 343.816 381.067C344.813 380.082 345.997 379.3 347.301 378.767C348.604 378.234 350 377.959 351.411 377.959V377.959Z" fill="#2F2E41"/>
<path d="M367.493 368.35L353.663 367.325C352.876 367.266 352.138 366.922 351.588 366.357C351.037 365.792 350.712 365.045 350.673 364.257L347.589 300.512C347.56 299.901 347.308 299.321 346.881 298.882C346.454 298.442 345.882 298.174 345.271 298.127C344.66 298.08 344.054 298.257 343.565 298.626C343.076 298.995 342.738 299.529 342.615 300.129L329.75 362.924C329.591 363.696 329.155 364.384 328.524 364.858C327.894 365.332 327.112 365.559 326.326 365.497L313.823 364.497C313.395 364.462 312.978 364.343 312.596 364.145C312.214 363.948 311.876 363.676 311.6 363.346C311.325 363.016 311.118 362.635 310.991 362.224C310.865 361.813 310.822 361.381 310.865 360.953L322.464 244.946C322.509 244.493 322.649 244.054 322.876 243.659C323.103 243.264 323.411 242.921 323.779 242.653C324.148 242.385 324.569 242.198 325.015 242.104C325.461 242.011 325.921 242.012 326.366 242.109L370.473 251.699C371.204 251.859 371.856 252.268 372.32 252.855C372.784 253.441 373.031 254.171 373.018 254.919L370.964 365.186C370.948 366.032 370.601 366.837 369.999 367.43C369.396 368.023 368.585 368.356 367.74 368.359C367.658 368.359 367.576 368.355 367.493 368.35Z" fill="#2F2E41"/>
<path d="M355.328 148.051C365.098 148.051 373.019 140.133 373.019 130.366C373.019 120.598 365.098 112.68 355.328 112.68C345.558 112.68 337.637 120.598 337.637 130.366C337.637 140.133 345.558 148.051 355.328 148.051Z" fill="#FFB8B8"/>
<path d="M328.219 253.906C326.524 252.386 325.178 250.516 324.274 248.427C323.371 246.337 322.931 244.076 322.984 241.8C322.984 216.462 344.914 159.853 345.601 158.086C345.668 157.661 346.247 157.477 349.283 155.426C352.32 153.374 356.7 153.058 362.301 154.489C362.871 154.635 363.389 154.934 363.8 155.354C364.212 155.774 364.5 156.298 364.634 156.871L365.676 158.376C365.766 158.758 365.945 159.113 366.198 159.413C366.451 159.713 366.771 159.95 367.132 160.104C371.649 162.007 386.006 170.783 381.114 203.81C376.569 234.49 374.725 252.533 374.143 258.867C374.074 259.619 373.744 260.322 373.21 260.856C372.677 261.389 371.972 261.718 371.221 261.785C369.006 261.984 365.205 262.247 360.678 262.247C350.185 262.247 335.791 260.831 328.219 253.906Z" fill="#CCCCCC"/>
<path d="M306.97 244.377C306.548 243.518 306.319 242.577 306.301 241.621C306.283 240.664 306.475 239.716 306.865 238.841C307.255 237.967 307.832 237.188 308.556 236.56C309.28 235.932 310.134 235.47 311.057 235.207L333.26 189.99L344.714 198.49L319.37 240.128C319.712 241.703 319.462 243.347 318.669 244.75C317.875 246.153 316.593 247.218 315.064 247.741C313.536 248.265 311.867 248.212 310.376 247.592C308.884 246.972 307.672 245.828 306.97 244.377L306.97 244.377Z" fill="#FFB8B8"/>
<path d="M345.719 200.5C345.288 200.623 344.833 200.634 344.396 200.533L331.119 197.463C330.452 197.309 329.87 196.904 329.491 196.332C329.113 195.76 328.967 195.064 329.085 194.387L333.842 166.966C334.253 164.401 335.585 162.077 337.587 160.432C339.032 159.268 340.763 158.517 342.598 158.258C344.432 157.998 346.303 158.241 348.011 158.959C349.333 159.501 350.52 160.325 351.491 161.375C352.667 162.615 353.516 164.13 353.961 165.782C354.407 167.435 354.435 169.172 354.042 170.838L347.6 198.528C347.491 198.995 347.259 199.424 346.928 199.771C346.597 200.118 346.18 200.37 345.719 200.5Z" fill="#CCCCCC"/>
<path d="M351.373 146.318C350.514 145.439 349.881 144.365 349.525 143.186C349.17 142.008 349.105 140.761 349.334 139.552C349.949 136.323 350.31 134.211 350.379 133.442C350.613 130.813 347.964 128.684 345.344 128.345C345.242 128.332 345.157 128.323 345.086 128.317C345.153 128.383 345.224 128.45 345.287 128.51C345.785 128.979 346.405 129.563 346.257 130.166C346.169 130.529 345.838 130.787 345.247 130.952C341.149 132.103 337.992 131.047 335.313 127.625C334.56 126.653 334.042 125.518 333.801 124.31C332.841 119.586 335.398 115.558 337.713 113.011C339.621 110.912 342.714 108.363 346.615 108.144C349.648 107.974 353.256 109.726 354.335 112.883C354.845 112.126 355.523 111.498 356.316 111.049C357.109 110.6 357.995 110.343 358.904 110.298C360.976 110.253 363.014 110.822 364.764 111.934C373.318 116.851 376.994 128.565 372.792 137.514C370.149 143.143 364.421 147.334 357.845 148.451C357.434 148.521 357.017 148.556 356.599 148.556C355.623 148.555 354.657 148.356 353.759 147.971C352.861 147.587 352.05 147.024 351.373 146.318V146.318Z" fill="#2F2E41"/>
</g>
<defs>
<clipPath id="clip0">
<rect width="556" height="410" fill="white"/>
</clipPath>
</defs>
</svg>
