<svg width="884" height="714" viewBox="0 0 884 714" fill="none" xmlns="http://www.w3.org/2000/svg">
<path d="M749.466 121.55C774.409 157.922 768.889 205.038 768.889 205.038C768.889 205.038 722.931 193.185 697.989 156.814C673.046 120.442 678.566 73.3253 678.566 73.3253C678.566 73.3253 724.524 85.1785 749.466 121.55Z" fill="#3B3B3B"/>
<path d="M731.52 128.495C734.439 172.493 767.941 206.097 767.941 206.097C767.941 206.097 796.711 168.366 793.792 124.369C790.873 80.3706 757.372 46.7664 757.372 46.7664C757.372 46.7664 728.602 84.497 731.52 128.495Z" fill="#FFCC80"/>
<path d="M445.156 0.916189L783.791 171.078C786.607 172.493 788.942 174.706 790.504 177.442C792.067 180.177 792.787 183.312 792.575 186.455L772.9 477.728C772.812 479.035 772.401 480.299 771.705 481.408C771.009 482.517 770.049 483.437 768.91 484.085C767.772 484.733 766.491 485.089 765.181 485.122C763.871 485.154 762.574 484.862 761.405 484.271L415.048 307.603L432.83 8.0167C432.913 6.60942 433.345 5.24492 434.087 4.04574C434.828 2.84656 435.856 1.85026 437.078 1.1463C438.3 0.442352 439.678 0.0528001 441.088 0.0126354C442.498 -0.0275294 443.896 0.28295 445.156 0.916189Z" fill="#D0CDE1"/>
<path d="M449.054 6.85172L779.371 172.834C782.117 174.214 784.395 176.373 785.919 179.041C787.443 181.71 788.146 184.768 787.939 187.833L768.748 471.952C768.661 473.227 768.261 474.46 767.582 475.542C766.903 476.624 765.966 477.521 764.856 478.153C763.745 478.785 762.496 479.132 761.218 479.164C759.941 479.196 758.675 478.911 757.535 478.334L419.685 306.006L437.03 13.7778C437.111 12.4051 437.533 11.0741 438.256 9.90441C438.979 8.73468 439.982 7.76285 441.174 7.07619C442.366 6.38953 443.71 6.00954 445.086 5.97036C446.461 5.93119 447.824 6.23404 449.054 6.85172Z" fill="#3B3B3B"/>
<path d="M463.53 28.898L762.952 179.356C765.442 180.607 767.507 182.564 768.888 184.983C770.27 187.401 770.907 190.174 770.719 192.952L753.323 450.498C753.245 451.653 752.882 452.771 752.266 453.752C751.651 454.732 750.802 455.546 749.795 456.119C748.788 456.691 747.656 457.006 746.497 457.035C745.339 457.064 744.192 456.805 743.159 456.283L436.908 300.072L452.631 35.1763C452.704 33.932 453.086 32.7255 453.742 31.6652C454.398 30.6048 455.307 29.7239 456.387 29.1015C457.468 28.479 458.686 28.1346 459.933 28.0991C461.179 28.0636 462.415 28.3381 463.53 28.898Z" fill="white"/>
<path d="M154.571 450.927L493.638 621.595C496.793 623.181 500.277 624.005 503.809 624C507.341 623.995 510.823 623.163 513.974 621.569L764.807 494.306C767.748 491.366 767.337 487.01 766.397 483.739C765.94 482.156 765.318 480.625 764.542 479.171L730.361 461.203L442.976 317.892L425.806 308.782C421.26 306.376 416.199 305.108 411.055 305.087C405.912 305.066 400.84 306.293 396.275 308.662L154.464 434.203C152.926 434.999 151.638 436.204 150.742 437.685C149.846 439.167 149.378 440.867 149.389 442.598C149.4 444.329 149.889 446.023 150.804 447.493C151.719 448.963 153.022 450.152 154.571 450.927Z" fill="#D0CDE1"/>
<path opacity="0.1" d="M154.571 450.927L493.638 621.595C496.793 623.181 500.277 624.005 503.809 624C507.341 623.995 510.823 623.163 513.974 621.569L764.807 494.306C767.748 491.366 767.337 487.01 766.397 483.739L516.314 613.657C513.262 615.242 509.879 616.084 506.439 616.113C503 616.143 499.603 615.359 496.525 613.826L149.51 441.036C149.183 443.009 149.499 445.034 150.41 446.815C151.321 448.595 152.779 450.037 154.571 450.927Z" fill="black"/>
<path opacity="0.1" d="M476.399 502.063L366.592 446.603C364.381 445.487 361.934 444.918 359.457 444.947C356.981 444.975 354.547 445.598 352.362 446.765L288.662 480.778C287.926 481.171 287.313 481.759 286.888 482.476C286.463 483.194 286.243 484.015 286.253 484.849C286.263 485.683 286.502 486.498 286.944 487.206C287.385 487.913 288.013 488.486 288.758 488.862L400.718 545.29C402.577 546.227 404.638 546.692 406.72 546.644C408.801 546.596 410.839 546.037 412.653 545.015L476.607 509.004C477.23 508.653 477.746 508.138 478.098 507.516C478.449 506.893 478.624 506.186 478.603 505.471C478.581 504.756 478.365 504.061 477.976 503.46C477.588 502.859 477.043 502.376 476.399 502.063Z" fill="black"/>
<path opacity="0.1" d="M735.013 492.788L616.85 555.528C615.49 556.25 613.977 556.635 612.438 556.65C610.898 556.666 609.377 556.311 608.003 555.617L274.143 386.873C273.202 386.397 272.412 385.67 271.862 384.771C271.312 383.872 271.023 382.838 271.027 381.785C271.032 380.731 271.33 379.699 271.888 378.806C272.446 377.912 273.242 377.191 274.186 376.723L389.575 319.642C391.314 318.782 393.23 318.338 395.17 318.345C397.111 318.351 399.023 318.809 400.756 319.682L734.961 487.98C735.404 488.203 735.778 488.544 736.041 488.965C736.303 489.386 736.445 489.872 736.45 490.368C736.456 490.864 736.325 491.352 736.071 491.779C735.818 492.206 735.451 492.555 735.013 492.788Z" fill="black"/>
<path d="M546.504 179.894L545.911 181.078L654.548 235.368L655.141 234.183L546.504 179.894Z" fill="#FFCC80"/>
<path d="M546.494 195.816L545.891 196.994L654.558 252.55L655.161 251.372L546.494 195.816Z" fill="#FFCC80"/>
<path d="M566.386 226.233L565.783 227.412L628.042 259.208L628.645 258.028L566.386 226.233Z" fill="#FFCC80"/>
<path d="M226.242 292.526C226.242 292.526 199.75 280.989 187.307 293.176C174.864 305.364 220.623 301.352 226.242 292.526Z" fill="#3F3D56"/>
<path d="M180.498 237.809C189.401 222.774 207.014 222.073 207.014 222.073C207.014 222.073 224.177 219.88 235.187 242.778C245.45 264.121 259.613 284.728 237.468 289.725L233.468 277.281L230.99 290.651C227.837 290.878 224.674 290.932 221.515 290.813C197.799 290.048 175.213 291.037 175.94 282.531C176.907 271.224 171.932 252.276 180.498 237.809Z" fill="#2F2E41"/>
<path d="M168.041 510.366C168.041 510.366 179.28 531.227 186.505 531.227C193.73 531.227 192.927 544.867 191.321 548.077C189.716 551.286 185.702 558.507 192.124 568.938C194.367 572.581 193.966 576.714 192.494 580.55C188.369 591.298 172.325 588.042 172.837 576.542C172.842 576.415 172.849 576.287 172.857 576.159C173.66 563.321 167.238 543.262 160.815 538.448C154.393 533.634 148.774 520.796 148.774 520.796L168.041 510.366Z" fill="#FFB8B8"/>
<path d="M245.108 505.552C245.108 505.552 233.869 526.413 226.644 526.413C219.419 526.413 220.222 540.053 221.827 543.262C223.433 546.472 227.447 553.693 221.024 564.124C218.781 567.767 219.182 571.9 220.654 575.736C224.779 586.484 240.824 583.227 240.312 571.728C240.306 571.601 240.299 571.473 240.291 571.345C239.488 558.507 245.911 538.448 252.333 533.634C258.755 528.82 264.375 515.982 264.375 515.982L245.108 505.552Z" fill="#FFB8B8"/>
<path d="M236.277 402.85L241.094 413.281C241.094 413.281 311.739 436.549 305.317 463.829C298.895 491.109 267.586 533.634 262.769 532.029C257.953 530.425 232.263 525.611 231.461 511.97C230.658 498.33 249.925 474.26 249.925 474.26L223.433 450.189L184.883 449.387L151.985 474.26C151.985 474.26 186.505 504.749 171.252 516.785C155.999 528.82 133.521 536.844 130.31 532.029C127.098 527.215 90.973 455.806 96.5925 449.387C102.212 442.968 159.21 418.897 159.21 418.897L174.463 397.234L233.869 394.024L236.277 402.85Z" fill="#2F2E41"/>
<path d="M221.827 270.461C221.827 270.461 217.813 296.939 225.841 300.148C233.869 303.358 209.785 316.998 209.785 316.998H196.138L187.307 298.544C187.307 298.544 195.335 284.101 190.519 270.461C185.702 256.821 221.827 270.461 221.827 270.461Z" fill="#FFB8B8"/>
<path opacity="0.1" d="M221.827 270.461C221.827 270.461 217.813 296.939 225.841 300.148C233.869 303.358 209.785 316.998 209.785 316.998H196.138L187.307 298.544C187.307 298.544 195.335 284.101 190.519 270.461C185.702 256.821 221.827 270.461 221.827 270.461Z" fill="black"/>
<path d="M227.447 292.927C227.447 292.927 218.616 302.555 217.01 304.16C215.405 305.765 208.18 314.591 192.927 301.753C177.674 288.915 176.068 304.16 176.068 304.16V400.443C176.068 400.443 188.913 394.827 199.349 400.443C209.785 406.059 231.461 398.838 231.461 398.838L235.475 299.346L227.447 292.927Z" fill="#D0CDE1"/>
<path d="M221.55 292.927C221.55 292.927 229.052 289.718 235.475 292.927C241.897 296.137 264.375 312.184 262.769 319.405C261.164 326.626 240.291 377.175 254.741 401.245C269.192 425.316 271.6 431.735 271.6 431.735L236.277 413.281C236.277 413.281 208.983 396.431 211.391 386.001C213.799 375.57 221.55 292.927 221.55 292.927Z" fill="#3F3D56"/>
<path d="M189.706 292.927C189.706 292.927 172.857 294.532 172.054 296.137C171.252 297.741 146.767 304.561 148.372 311.783C149.978 319.004 172.054 383.593 162.421 395.629C152.787 407.664 136.732 424.514 142.351 426.118C147.971 427.723 157.604 423.711 167.238 426.118C176.871 428.525 199.349 408.467 196.941 386.803C194.532 365.139 196.922 298.544 189.706 292.927Z" fill="#3F3D56"/>
<path d="M229.855 446.177V454.201C229.855 454.201 233.869 472.655 221.024 471.853C208.18 471.05 216.208 449.387 216.208 449.387L217.01 442.165L229.855 446.177Z" fill="#FFB8B8"/>
<path d="M193.73 446.98C193.73 446.98 202.56 465.434 193.73 467.039C184.899 468.643 178.477 456.608 178.477 453.398C178.477 450.189 193.73 446.98 193.73 446.98Z" fill="#FFB8B8"/>
<path d="M182.089 262.839C182.976 262.839 183.695 261.402 183.695 259.629C183.695 257.857 182.976 256.42 182.089 256.42C181.202 256.42 180.484 257.857 180.484 259.629C180.484 261.402 181.202 262.839 182.089 262.839Z" fill="#FFB8B8"/>
<path d="M229.454 262.839C230.34 262.839 231.059 261.402 231.059 259.629C231.059 257.857 230.34 256.42 229.454 256.42C228.567 256.42 227.848 257.857 227.848 259.629C227.848 261.402 228.567 262.839 229.454 262.839Z" fill="#FFB8B8"/>
<path d="M168.041 303.358C168.041 303.358 147.971 303.358 148.774 311.381C149.576 319.405 176.068 457.41 176.068 457.41C176.068 457.41 187.307 446.98 196.941 449.387L168.041 303.358Z" fill="#3F3D56"/>
<path d="M245.911 305.765C245.911 305.765 265.98 309.777 265.98 321.812C265.98 333.847 237.08 449.387 233.066 449.387C229.052 449.387 213.799 446.98 213.799 442.968C213.799 438.956 245.911 305.765 245.911 305.765Z" fill="#3F3D56"/>
<path opacity="0.2" d="M241.495 329.434L223.433 400.035C223.433 400.035 231.862 338.26 241.495 329.434Z" fill="black"/>
<path opacity="0.2" d="M171.238 319.514L189.506 411.82C189.506 411.82 183.668 324.839 171.238 319.514Z" fill="black"/>
<path d="M205.772 283.299C218.629 283.299 229.052 272.881 229.052 260.031C229.052 247.18 218.629 236.762 205.772 236.762C192.914 236.762 182.491 247.18 182.491 260.031C182.491 272.881 192.914 283.299 205.772 283.299Z" fill="#FFB8B8"/>
<path d="M184.434 236.359L201.835 227.25L225.865 230.976L230.837 252.923L218.461 252.448L215.004 244.385V252.315L209.293 252.095L205.978 239.258L203.907 252.923L183.605 252.51L184.434 236.359Z" fill="#2F2E41"/>
<path d="M445.375 101.274L435.779 124.083L516.773 166.575L544.06 86.7651" fill="#FFAB91"/>
<path d="M514.906 152.581L550.686 68.4343L468.45 27.9887L433.912 110.089L514.906 152.581Z" fill="#FFCC80"/>
<path d="M466.506 60.1666L465.903 61.3459L528.162 93.1413L528.765 91.9619L466.506 60.1666Z" fill="white"/>
<path d="M461.839 71.3621L461.236 72.5414L523.495 104.337L524.098 103.157L461.839 71.3621Z" fill="white"/>
<path d="M319.932 645.693L368.977 699.684L425.712 653.578L377.735 601.17L319.932 645.693Z" fill="#FFAB91"/>
<path d="M403.042 641.438L402.388 640.608L358.585 675.122L359.238 675.952L403.042 641.438Z" fill="white"/>
<path d="M396.485 634.323L395.832 633.493L352.028 668.006L352.682 668.836L396.485 634.323Z" fill="white"/>
<path d="M765.932 336.693L814.977 390.684L871.712 344.578L823.735 292.17L765.932 336.693Z" fill="#FFCC80"/>
<path d="M849.042 332.438L848.388 331.608L804.585 366.122L805.238 366.952L849.042 332.438Z" fill="white"/>
<path d="M842.485 325.323L841.832 324.493L798.028 359.006L798.682 359.836L842.485 325.323Z" fill="white"/>
<path d="M112.436 159.603L54.638 115.108L6.9237 170.496L63.3907 213.622L112.436 159.603Z" fill="#FFCC80"/>
<path d="M31.3792 178.447L32.1689 179.149L69.1995 137.452L68.4098 136.75L31.3792 178.447Z" fill="white"/>
<path d="M39.0877 184.295L39.8774 184.997L76.908 143.3L76.1183 142.598L39.0877 184.295Z" fill="white"/>
</svg>
