<svg width="1623" height="182" viewBox="0 0 1623 182" fill="none" xmlns="http://www.w3.org/2000/svg">
<g opacity="0.3">
<path d="M535.312 142.442L573.573 214.061L676.201 199.18L638.555 129.487L535.312 142.442Z" fill="#FFCC80"/>
<path d="M650.686 180.468L650.227 179.524L576.177 186.317L576.637 187.262L650.686 180.468Z" fill="white"/>
<path d="M644.343 170.133L643.884 169.189L569.834 175.982L570.293 176.927L644.343 170.133Z" fill="white"/>
</g>
<path opacity="0.3" d="M347.963 150.225C385.318 186.596 377.051 233.713 377.051 233.713C377.051 233.713 308.221 221.86 270.867 185.488C233.512 149.117 241.778 102 241.778 102C241.778 102 310.608 113.853 347.963 150.225Z" fill="#3B3B3B"/>
<path opacity="0.3" d="M1336.56 161.44C1304.8 130.677 1244.79 137.436 1244.79 137.436C1244.79 137.436 1236.27 194.071 1268.03 224.834C1299.79 255.597 1359.8 248.838 1359.8 248.838C1359.8 248.838 1368.32 192.202 1336.56 161.44Z" fill="#FFCC80"/>
<path opacity="0.3" d="M1377.58 166.634C1393.6 216.249 1364.27 254.036 1364.27 254.036C1364.27 254.036 1308.96 211.381 1292.95 161.766C1276.93 112.151 1306.26 74.3637 1306.26 74.3637C1306.26 74.3637 1361.57 117.019 1377.58 166.634Z" fill="#3B3B3B"/>
<path opacity="0.3" d="M222.89 162.745C185.428 171.672 161.576 207.505 161.576 207.505C161.576 207.505 198.462 228.864 235.924 219.937C273.386 211.01 297.238 175.178 297.238 175.178C297.238 175.178 260.352 153.818 222.89 162.745Z" fill="#FFCC80"/>
<g opacity="0.3">
<path d="M1501.88 147.804L1582.08 135.098L1601.62 33.2535L1523.44 46.0096L1501.88 147.804Z" fill="#FFCC80"/>
<path d="M1575.58 51.2363L1574.54 51.361L1556.72 123.554L1557.76 123.429L1575.58 51.2363Z" fill="white"/>
<path d="M1563.74 53.8469L1562.7 53.9716L1544.88 126.165L1545.92 126.04L1563.74 53.8469Z" fill="white"/>
</g>
<g opacity="0.3">
<path d="M171.71 116.677L107.848 57.812L19.8897 100.053L82.4131 157.223L171.71 116.677Z" fill="#FFCC80"/>
<path d="M51.4956 111.513L52.3005 112.331L116.223 84.775L115.418 83.9566L51.4956 111.513Z" fill="white"/>
<path d="M61.3449 119.908L62.1499 120.726L126.073 93.1698L125.268 92.3513L61.3449 119.908Z" fill="white"/>
</g>
</svg>
