<svg width="218" height="178" viewBox="0 0 218 178" fill="none" xmlns="http://www.w3.org/2000/svg">
<path d="M158.605 32.7016L169.897 54.5138L200.319 49.943L189.207 28.7175L158.605 32.7016Z" fill="#FFCC80"/>
<path d="M192.773 44.2621L192.637 43.9775L170.699 46.051L170.834 46.3356L192.773 44.2621Z" fill="white"/>
<path d="M190.893 41.1127L190.758 40.8281L168.819 42.9016L168.955 43.1861L190.893 41.1127Z" fill="white"/>
<path d="M103.088 35.0489C114.154 46.1327 111.705 60.4911 111.705 60.4911C111.705 60.4911 91.3137 56.8789 80.247 45.7951C69.1803 34.7112 71.6293 20.3529 71.6293 20.3529C71.6293 20.3529 92.0209 23.965 103.088 35.0489Z" fill="#3B3B3B"/>
<path d="M66.0335 38.8644C54.9349 41.5848 47.8685 52.5044 47.8685 52.5044C47.8685 52.5044 58.7964 59.0135 69.8949 56.2931C80.9935 53.5727 88.0599 42.653 88.0599 42.653C88.0599 42.653 77.1321 36.144 66.0335 38.8644Z" fill="#FFCC80"/>
<path d="M50.9212 24.9321L31.8398 6.93694L5.84381 19.6517L24.5243 37.1293L50.9212 24.9321Z" fill="#FFCC80"/>
<path d="M15.2561 23.248L15.4973 23.5013L34.4324 15.1077L34.1913 14.8544L15.2561 23.248Z" fill="white"/>
<path d="M18.1741 25.8062L18.4152 26.0596L37.3504 17.666L37.1092 17.4126L18.1741 25.8062Z" fill="white"/>
<path d="M170.322 170.67L190.964 154.489L182.272 126.886L162.202 142.748L170.322 170.67Z" fill="#FFCC80"/>
<path d="M177.311 135.656L177.025 135.857L182.498 155.833L182.784 155.632L177.311 135.656Z" fill="white"/>
<path d="M174.346 138.159L174.06 138.36L179.533 158.336L179.819 158.135L174.346 138.159Z" fill="white"/>
<path d="M148.025 125.686C140.926 139.647 126.517 141.779 126.517 141.779C126.517 141.779 123.618 121.273 130.717 107.312C137.816 93.3501 152.225 91.2191 152.225 91.2191C152.225 91.2191 155.124 111.724 148.025 125.686Z" fill="#3B3B3B"/>
<path d="M37.0948 126.506C30.5387 120.122 18.1504 121.524 18.1504 121.524C18.1504 121.524 16.3918 133.279 22.948 139.664C29.5042 146.048 41.8925 144.645 41.8925 144.645C41.8925 144.645 43.651 132.891 37.0948 126.506Z" fill="#FFCC80"/>
<path d="M45.5642 127.584C48.8711 137.882 42.8155 145.724 42.8155 145.724C42.8155 145.724 31.3982 136.871 28.0913 126.574C24.7845 116.276 30.8401 108.434 30.8401 108.434C30.8401 108.434 42.2573 117.287 45.5642 127.584Z" fill="#3B3B3B"/>
<path d="M71.2129 123.685L87.7753 121.019L91.8256 99.8928L75.6806 102.569L71.2129 123.685Z" fill="#FFCC80"/>
<path d="M86.4395 103.634L86.2248 103.66L82.5448 118.643L82.7595 118.617L86.4395 103.634Z" fill="white"/>
<path d="M83.9948 104.176L83.7801 104.202L80.1001 119.185L80.3148 119.159L83.9948 104.176Z" fill="white"/>
<path d="M189.111 86.8009L205.664 89.5253L216.206 70.7746L200.046 68.1916L189.111 86.8009Z" fill="#FFCC80"/>
<path d="M209.911 72.6142L209.7 72.571L201.457 85.6133L201.669 85.6564L209.911 72.6142Z" fill="white"/>
<path d="M207.421 72.3526L207.209 72.3094L198.967 85.3517L199.179 85.3948L207.421 72.3526Z" fill="white"/>
</svg>
