<svg width="260" height="260" viewBox="0 0 260 260" fill="none" xmlns="http://www.w3.org/2000/svg">
<g clip-path="url(#clip0_163_6)">
<path d="M152.042 114.146C211.874 145.782 238.194 213.769 238.194 213.769C238.194 213.769 167.506 230.464 107.674 198.827C47.8423 167.191 21.5226 99.204 21.5226 99.204C21.5226 99.204 92.2098 82.5094 152.042 114.146Z" fill="#3B3B3B"/>
<path d="M132.164 134.347C167.805 192.289 237.558 214.104 237.558 214.104C237.558 214.104 249.526 141.979 213.885 84.0375C178.244 26.0962 108.49 4.28054 108.49 4.28054C108.49 4.28054 96.5225 76.4061 132.164 134.347Z" fill="#FFCC80"/>
<path d="M184.031 217.858C186.541 218.585 188.884 219.8 190.925 221.432C192.966 223.065 194.666 225.084 195.926 227.373C197.187 229.662 197.985 232.178 198.274 234.775C198.563 237.373 198.337 240.002 197.61 242.513C196.883 245.023 195.668 247.366 194.036 249.407C192.403 251.448 190.385 253.147 188.095 254.408C185.806 255.669 183.291 256.467 180.693 256.756C178.095 257.045 175.466 256.819 172.956 256.092L43.9169 218.713L16 189.906L54.992 180.48L184.031 217.858Z" fill="#E4E4E4"/>
</g>
<defs>
<clipPath id="clip0_163_6">
<rect width="260" height="260" fill="white"/>
</clipPath>
</defs>
</svg>
